HIERARCHY
ROOT mixamorig:Hips
{
	OFFSET -0.000008 104.274872 1.554316
	CHANNELS 6 Xposition Yposition Zposition Xrotation Yrotation Zrotation
	JOINT mixamorig:Spine
	{
		OFFSET -0.000005 10.181595 0.131519
		CHANNELS 6 Xposition Yposition Zposition Xrotation Yrotation Zrotation
		JOINT mixamorig:Spine1
		{
			OFFSET -0.000000 9.893959 -1.470707
			CHANNELS 6 Xposition Yposition Zposition Xrotation Yrotation Zrotation
			JOINT mixamorig:Spine2
			{
				OFFSET -0.000000 9.220757 -1.370641
				CHANNELS 6 Xposition Yposition Zposition Xrotation Yrotation Zrotation
				JOINT mixamorig:Neck
				{
					OFFSET 0.000001 16.740417 -2.049036
					CHANNELS 6 Xposition Yposition Zposition Xrotation Yrotation Zrotation
					JOINT mixamorig:Head
					{
						OFFSET 0.000000 9.617874 1.685006
						CHANNELS 6 Xposition Yposition Zposition Xrotation Yrotation Zrotation
						JOINT mixamorig:HeadTop_End
						{
							OFFSET 0.000002 22.037354 7.501101
							CHANNELS 6 Xposition Yposition Zposition Xrotation Yrotation Zrotation
							End Site
							{
								OFFSET 0.000168 2310.654297 -282.823242
							}
						}
					}
				}
				JOINT mixamorig:RightShoulder
				{
					OFFSET -4.569970 11.014908 -2.160885
					CHANNELS 6 Xposition Yposition Zposition Xrotation Yrotation Zrotation
					JOINT mixamorig:RightArm
					{
						OFFSET -10.592851 -0.524811 -2.232101
						CHANNELS 6 Xposition Yposition Zposition Xrotation Yrotation Zrotation
						JOINT mixamorig:RightForeArm
						{
							OFFSET -27.841511 0.000031 -0.000004
							CHANNELS 6 Xposition Yposition Zposition Xrotation Yrotation Zrotation
							JOINT mixamorig:RightHand
							{
								OFFSET -28.328831 -0.000015 0.000015
								CHANNELS 6 Xposition Yposition Zposition Xrotation Yrotation Zrotation
								JOINT mixamorig:RightHandThumb1
								{
									OFFSET -2.464806 -1.573990 2.681852
									CHANNELS 6 Xposition Yposition Zposition Xrotation Yrotation Zrotation
									JOINT mixamorig:RightHandThumb2
									{
										OFFSET -3.215179 -1.872803 1.924282
										CHANNELS 6 Xposition Yposition Zposition Xrotation Yrotation Zrotation
										JOINT mixamorig:RightHandThumb3
										{
											OFFSET -2.654831 -1.527969 1.512609
											CHANNELS 6 Xposition Yposition Zposition Xrotation Yrotation Zrotation
											JOINT mixamorig:RightHandThumb4
											{
												OFFSET -2.018814 -1.152008 1.108052
												CHANNELS 6 Xposition Yposition Zposition Xrotation Yrotation Zrotation
												End Site
												{
													OFFSET -188.809540 -114.533607 132.431396
												}
											}
										}
									}
								}
								JOINT mixamorig:RightHandIndex1
								{
									OFFSET -9.108284 -0.517868 2.259835
									CHANNELS 6 Xposition Yposition Zposition Xrotation Yrotation Zrotation
									JOINT mixamorig:RightHandIndex2
									{
										OFFSET -3.699989 0.000000 0.001215
										CHANNELS 6 Xposition Yposition Zposition Xrotation Yrotation Zrotation
										JOINT mixamorig:RightHandIndex3
										{
											OFFSET -2.850006 0.000031 -0.000522
											CHANNELS 6 Xposition Yposition Zposition Xrotation Yrotation Zrotation
											JOINT mixamorig:RightHandIndex4
											{
												OFFSET -2.772186 -0.000015 -0.000020
												CHANNELS 6 Xposition Yposition Zposition Xrotation Yrotation Zrotation
												End Site
												{
													OFFSET -277.218445 0.000000 -0.050231
												}
											}
										}
									}
								}
								JOINT mixamorig:RightHandMiddle1
								{
									OFFSET -9.532516 -0.000031 -0.000023
									CHANNELS 6 Xposition Yposition Zposition Xrotation Yrotation Zrotation
									JOINT mixamorig:RightHandMiddle2
									{
										OFFSET -3.700005 -0.000015 0.003713
										CHANNELS 6 Xposition Yposition Zposition Xrotation Yrotation Zrotation
										JOINT mixamorig:RightHandMiddle3
										{
											OFFSET -2.949974 0.000015 -0.002054
											CHANNELS 6 Xposition Yposition Zposition Xrotation Yrotation Zrotation
											JOINT mixamorig:RightHandMiddle4
											{
												OFFSET -2.946640 0.000000 -0.000156
												CHANNELS 6 Xposition Yposition Zposition Xrotation Yrotation Zrotation
												End Site
												{
													OFFSET -294.664337 0.000000 -0.113670
												}
											}
										}
									}
								}
								JOINT mixamorig:RightHandRing1
								{
									OFFSET -9.103600 -0.043076 -1.865134
									CHANNELS 6 Xposition Yposition Zposition Xrotation Yrotation Zrotation
									JOINT mixamorig:RightHandRing2
									{
										OFFSET -3.379288 0.000000 -0.001055
										CHANNELS 6 Xposition Yposition Zposition Xrotation Yrotation Zrotation
										JOINT mixamorig:RightHandRing3
										{
											OFFSET -2.889687 -0.000015 0.000379
											CHANNELS 6 Xposition Yposition Zposition Xrotation Yrotation Zrotation
											JOINT mixamorig:RightHandRing4
											{
												OFFSET -2.638809 -0.000015 0.000941
												CHANNELS 6 Xposition Yposition Zposition Xrotation Yrotation Zrotation
												End Site
												{
													OFFSET -263.880371 0.000000 0.516020
												}
											}
										}
									}
								}
								JOINT mixamorig:RightHandPinky1
								{
									OFFSET -8.076683 -0.486710 -3.806280
									CHANNELS 6 Xposition Yposition Zposition Xrotation Yrotation Zrotation
									JOINT mixamorig:RightHandPinky2
									{
										OFFSET -3.600014 -0.000015 -0.003747
										CHANNELS 6 Xposition Yposition Zposition Xrotation Yrotation Zrotation
										JOINT mixamorig:RightHandPinky3
										{
											OFFSET -2.099983 0.000000 -0.005739
											CHANNELS 6 Xposition Yposition Zposition Xrotation Yrotation Zrotation
											JOINT mixamorig:RightHandPinky4
											{
												OFFSET -2.115768 -0.000031 -0.003680
												CHANNELS 6 Xposition Yposition Zposition Xrotation Yrotation Zrotation
												End Site
												{
													OFFSET -211.577087 0.000000 -0.350686
												}
											}
										}
									}
								}
							}
						}
					}
				}
				JOINT mixamorig:LeftShoulder
				{
					OFFSET 4.570447 11.014725 -2.160855
					CHANNELS 6 Xposition Yposition Zposition Xrotation Yrotation Zrotation
					JOINT mixamorig:LeftArm
					{
						OFFSET 10.592371 -0.524597 -2.232119
						CHANNELS 6 Xposition Yposition Zposition Xrotation Yrotation Zrotation
						JOINT mixamorig:LeftForeArm
						{
							OFFSET 27.841532 -0.000031 0.000026
							CHANNELS 6 Xposition Yposition Zposition Xrotation Yrotation Zrotation
							JOINT mixamorig:LeftHand
							{
								OFFSET 28.328846 -0.000061 0.000022
								CHANNELS 6 Xposition Yposition Zposition Xrotation Yrotation Zrotation
								JOINT mixamorig:LeftHandThumb1
								{
									OFFSET 2.466141 -1.576172 2.681732
									CHANNELS 6 Xposition Yposition Zposition Xrotation Yrotation Zrotation
									JOINT mixamorig:LeftHandThumb2
									{
										OFFSET 3.217812 -1.872070 1.916482
										CHANNELS 6 Xposition Yposition Zposition Xrotation Yrotation Zrotation
										JOINT mixamorig:LeftHandThumb3
										{
											OFFSET 2.656029 -1.528778 1.514513
											CHANNELS 6 Xposition Yposition Zposition Xrotation Yrotation Zrotation
											JOINT mixamorig:LeftHandThumb4
											{
												OFFSET 2.020889 -1.154053 1.115139
												CHANNELS 6 Xposition Yposition Zposition Xrotation Yrotation Zrotation
												End Site
												{
													OFFSET 190.885437 -115.081749 130.048782
												}
											}
										}
									}
								}
								JOINT mixamorig:LeftHandIndex1
								{
									OFFSET 9.109314 -0.518021 2.259871
									CHANNELS 6 Xposition Yposition Zposition Xrotation Yrotation Zrotation
									JOINT mixamorig:LeftHandIndex2
									{
										OFFSET 3.699989 0.000000 -0.000322
										CHANNELS 6 Xposition Yposition Zposition Xrotation Yrotation Zrotation
										JOINT mixamorig:LeftHandIndex3
										{
											OFFSET 2.850006 0.000000 0.000352
											CHANNELS 6 Xposition Yposition Zposition Xrotation Yrotation Zrotation
											JOINT mixamorig:LeftHandIndex4
											{
												OFFSET 2.774864 -0.000031 -0.000027
												CHANNELS 6 Xposition Yposition Zposition Xrotation Yrotation Zrotation
												End Site
												{
													OFFSET 277.486267 0.000000 -0.009857
												}
											}
										}
									}
								}
								JOINT mixamorig:LeftHandMiddle1
								{
									OFFSET 9.533394 0.000061 0.000044
									CHANNELS 6 Xposition Yposition Zposition Xrotation Yrotation Zrotation
									JOINT mixamorig:LeftHandMiddle2
									{
										OFFSET 3.699989 -0.000015 -0.000231
										CHANNELS 6 Xposition Yposition Zposition Xrotation Yrotation Zrotation
										JOINT mixamorig:LeftHandMiddle3
										{
											OFFSET 2.949997 -0.000015 -0.000059
											CHANNELS 6 Xposition Yposition Zposition Xrotation Yrotation Zrotation
											JOINT mixamorig:LeftHandMiddle4
											{
												OFFSET 2.952896 0.000031 0.000063
												CHANNELS 6 Xposition Yposition Zposition Xrotation Yrotation Zrotation
												End Site
												{
													OFFSET 295.289337 0.000000 0.022810
												}
											}
										}
									}
								}
								JOINT mixamorig:LeftHandRing1
								{
									OFFSET 9.104523 -0.042999 -1.865074
									CHANNELS 6 Xposition Yposition Zposition Xrotation Yrotation Zrotation
									JOINT mixamorig:LeftHandRing2
									{
										OFFSET 3.150009 -0.000031 0.000043
										CHANNELS 6 Xposition Yposition Zposition Xrotation Yrotation Zrotation
										JOINT mixamorig:LeftHandRing3
										{
											OFFSET 2.949982 -0.000015 0.000040
											CHANNELS 6 Xposition Yposition Zposition Xrotation Yrotation Zrotation
											JOINT mixamorig:LeftHandRing4
											{
												OFFSET 2.644348 0.000000 0.000057
												CHANNELS 6 Xposition Yposition Zposition Xrotation Yrotation Zrotation
												End Site
												{
													OFFSET 264.434631 0.000000 0.012105
												}
											}
										}
									}
								}
								JOINT mixamorig:LeftHandPinky1
								{
									OFFSET 8.077789 -0.486847 -3.806259
									CHANNELS 6 Xposition Yposition Zposition Xrotation Yrotation Zrotation
									JOINT mixamorig:LeftHandPinky2
									{
										OFFSET 3.599953 0.000031 0.014727
										CHANNELS 6 Xposition Yposition Zposition Xrotation Yrotation Zrotation
										JOINT mixamorig:LeftHandPinky3
										{
											OFFSET 2.100021 0.000015 0.007705
											CHANNELS 6 Xposition Yposition Zposition Xrotation Yrotation Zrotation
											JOINT mixamorig:LeftHandPinky4
											{
												OFFSET 2.125504 0.000031 0.007517
												CHANNELS 6 Xposition Yposition Zposition Xrotation Yrotation Zrotation
												End Site
												{
													OFFSET 212.550781 0.000000 0.625752
												}
											}
										}
									}
								}
							}
						}
					}
				}
			}
		}
	}
	JOINT mixamorig:RightUpLeg
	{
		OFFSET -8.207787 -6.751648 -1.599560
		CHANNELS 6 Xposition Yposition Zposition Xrotation Yrotation Zrotation
		JOINT mixamorig:RightLeg
		{
			OFFSET -0.000002 -44.370117 0.345942
			CHANNELS 6 Xposition Yposition Zposition Xrotation Yrotation Zrotation
			JOINT mixamorig:RightFoot
			{
				OFFSET 0.000003 -44.423679 -3.043532
				CHANNELS 6 Xposition Yposition Zposition Xrotation Yrotation Zrotation
				JOINT mixamorig:RightToeBase
				{
					OFFSET -0.000002 -8.728671 10.710558
					CHANNELS 6 Xposition Yposition Zposition Xrotation Yrotation Zrotation
					JOINT mixamorig:RightToe_End
					{
						OFFSET -0.000001 -0.000679 9.278119
						CHANNELS 6 Xposition Yposition Zposition Xrotation Yrotation Zrotation
						End Site
						{
							OFFSET 0.000000 -0.067690 927.812134
						}
					}
				}
			}
		}
	}
	JOINT mixamorig:LeftUpLeg
	{
		OFFSET 8.207793 -6.751686 -1.599556
		CHANNELS 6 Xposition Yposition Zposition Xrotation Yrotation Zrotation
		JOINT mixamorig:LeftLeg
		{
			OFFSET -0.000004 -44.370014 0.346954
			CHANNELS 6 Xposition Yposition Zposition Xrotation Yrotation Zrotation
			JOINT mixamorig:LeftFoot
			{
				OFFSET -0.000001 -44.423672 -3.044401
				CHANNELS 6 Xposition Yposition Zposition Xrotation Yrotation Zrotation
				JOINT mixamorig:LeftToeBase
				{
					OFFSET -0.000002 -8.728669 10.710558
					CHANNELS 6 Xposition Yposition Zposition Xrotation Yrotation Zrotation
					JOINT mixamorig:LeftToe_End
					{
						OFFSET -0.000003 -0.000679 9.278133
						CHANNELS 6 Xposition Yposition Zposition Xrotation Yrotation Zrotation
						End Site
						{
							OFFSET 0.000000 -0.068021 927.813477
						}
					}
				}
			}
		}
	}
}
MOTION
Frames: 3
Frame Time: 0.033333
0.000006 104.270477 1.554256 0.000010 0.000003 -0.000113 -0.000005 10.181587 0.131522 0.000001 -0.000003 0.000084 -0.000000 9.893967 -1.470711 0.000001 0.000000 -0.000000 -0.000000 9.220802 -1.370642 0.000000 -0.000000 -0.000000 0.000001 16.740433 -2.049030 0.000000 -0.000000 -0.000000 0.000000 9.617859 1.685014 0.000000 0.000000 0.000000 0.000002 22.037384 7.501101 0.000000 -0.000000 0.000000 -4.569968 11.014880 -2.160881 0.000008 0.000001 -0.000038 -10.592817 -0.524838 -2.231776 68.789219 58.090281 -41.630829 -27.841454 -0.000001 0.000605 15.137834 108.238301 -20.817344 -28.328838 0.000022 0.000022 -0.000321 -0.000046 0.000008 -2.464488 -1.573666 2.682254 -56.822420 -177.660433 -40.721062 -3.215210 -1.872479 1.924608 143.739077 33.309289 39.939483 -2.654969 -1.527841 1.513037 152.829499 29.418950 -10.624721 -2.018819 -1.152002 1.108067 -0.000003 -0.000006 0.000002 -9.108396 -0.517594 2.260214 114.860204 19.809815 -30.651546 -3.700102 0.000285 0.001589 114.198284 17.227875 -26.319272 -2.850101 0.000334 -0.000140 118.365853 14.431191 -23.963640 -2.772165 0.000009 -0.000018 -0.000000 -0.000001 -0.000002 -9.532586 0.000283 0.000305 106.569290 15.855774 -21.342924 -3.700054 0.000341 0.003990 103.293757 9.724338 -12.155881 -2.950064 0.000324 -0.001757 104.401047 11.640599 -14.964140 -2.946615 0.000001 -0.000150 0.000000 0.000001 -0.000001 -9.103704 -0.042760 -1.864814 105.190876 17.592102 -22.821055 -3.379304 0.000349 -0.000772 102.013370 5.711307 -7.071834 -2.889759 0.000348 0.000682 105.000628 6.664635 -8.738002 -2.638809 -0.000000 0.000946 -0.000000 0.000000 -0.000000 -8.076773 -0.486408 -3.805932 102.843149 23.081366 -28.521980 -3.600034 0.000292 -0.003453 103.195061 8.402926 -10.142230 -2.100040 0.000298 -0.005421 103.076092 7.687304 -9.384947 -2.115783 -0.000040 -0.003671 -0.000001 -0.000001 -0.000003 4.570446 11.014691 -2.160851 -0.000018 0.000010 -0.000021 10.592503 -0.524542 -2.232384 56.380066 -60.191226 34.513550 27.841749 -0.000076 -0.000113 229.410454 -74.692183 242.172253 28.328835 -0.000014 0.000023 0.000021 -0.000088 0.000002 2.465965 -1.576160 2.681878 -38.323099 139.605037 -5.263822 3.217719 -1.871681 1.916380 154.417368 -35.130730 -25.312126 2.656123 -1.528677 1.514508 150.677238 -22.469366 62.675803 2.020895 -1.154052 1.115160 -0.000002 0.000006 0.000001 9.109412 -0.517793 2.259778 120.061079 -17.887729 30.509874 3.700091 0.000226 -0.000413 122.143877 -18.417914 32.729891 2.850103 0.000244 0.000267 123.610223 -18.708868 34.160730 2.774869 -0.000029 -0.000019 0.000005 0.000001 0.000001 9.533463 0.000253 -0.000064 103.443235 -14.115035 17.821287 3.700021 0.000089 -0.000384 54.823620 -8.001453 4.153230 2.950004 -0.000024 0.000020 -16.755765 -18.663103 -2.772527 2.952864 -0.000029 0.000067 0.000001 -0.000003 0.000001 9.104587 -0.042780 -1.865217 105.368707 -12.611040 16.499630 3.149919 0.000110 -0.000149 50.885688 33.371929 -16.231820 2.949988 0.000025 0.000156 -57.170985 22.140774 12.169552 2.644337 0.000042 0.000044 0.000001 -0.000000 -0.000002 8.077839 -0.486602 -3.806377 111.668723 -11.815416 18.160925 3.599866 0.000329 0.014536 106.894503 15.725542 -20.719300 2.099997 -0.000006 0.007744 -94.181540 57.667916 60.690315 2.125511 -0.000028 0.007516 0.000000 0.000001 -0.000003 -8.207786 -6.751667 -1.599560 -0.077001 -0.000003 0.000080 -0.000002 -44.370110 0.345938 0.153719 -0.000000 -0.000000 0.000000 -44.423679 -3.043532 -0.076700 0.000000 -0.000002 -0.000006 -8.728667 10.710559 -0.000009 -0.000000 -0.000000 -0.000001 -0.000679 9.278123 0.000000 -0.000000 -0.000000 8.207792 -6.751710 -1.599556 -0.074518 -0.000003 0.000081 -0.000002 -44.370014 0.346960 0.148822 0.000002 0.000000 -0.000001 -44.423664 -3.044403 -0.074314 0.000000 -0.000002 -0.000004 -8.728671 10.710558 0.000007 -0.000000 -0.000000 0.000000 -0.000680 9.278137 -0.000000 0.000000 -0.000001 
0.000006 104.270477 1.554256 0.000010 0.000003 -0.000113 -0.000005 10.181587 0.131522 0.000001 -0.000003 0.000084 -0.000000 9.893967 -1.470711 0.000001 0.000000 -0.000000 -0.000000 9.220802 -1.370642 0.000000 -0.000000 -0.000000 0.000001 16.740433 -2.049030 0.000000 -0.000000 -0.000000 0.000000 9.617859 1.685014 0.000000 0.000000 0.000000 0.000002 22.037384 7.501101 0.000000 -0.000000 0.000000 -4.569968 11.014880 -2.160881 0.000008 0.000001 -0.000038 -10.592817 -0.524833 -2.231783 67.804394 58.279409 -41.077550 -27.841450 0.000003 0.000600 15.362994 108.075921 -21.062213 -28.328836 0.000020 0.000020 -0.000323 -0.000046 0.000007 -2.464490 -1.573634 2.682251 -57.387762 -179.369469 -44.164133 -3.215240 -1.872509 1.924603 147.361304 33.393976 28.184282 -2.654960 -1.527866 1.513048 152.874455 28.548917 -17.073352 -2.018829 -1.152004 1.108069 -0.000003 -0.000002 -0.000000 -9.108397 -0.517580 2.260226 113.723770 18.055474 -27.428091 -3.700091 0.000268 0.001617 116.707784 15.466355 -24.812300 -2.850105 0.000322 -0.000134 120.159502 13.816725 -23.776495 -2.772161 0.000017 -0.000020 0.000000 -0.000001 -0.000001 -9.532593 0.000277 0.000306 104.706404 16.774716 -21.825958 -3.700067 0.000341 0.004000 101.815649 9.294141 -11.314111 -2.950059 0.000331 -0.001762 102.784648 10.938580 -13.666409 -2.946616 0.000015 -0.000145 0.000000 0.000002 -0.000001 -9.103696 -0.042774 -1.864800 104.696541 18.521228 -23.807464 -3.379311 0.000343 -0.000787 99.772576 5.965858 -7.098239 -2.889752 0.000344 0.000665 102.685365 6.723902 -8.457020 -2.638822 -0.000027 0.000947 -0.000001 0.000000 -0.000001 -8.076773 -0.486421 -3.805922 99.833952 24.697107 -28.976009 -3.600047 0.000283 -0.003442 102.199062 9.640435 -11.486012 -2.100042 0.000298 -0.005423 102.653495 8.297118 -10.072208 -2.115780 -0.000055 -0.003666 -0.000001 -0.000004 -0.000004 4.570446 11.014691 -2.160851 -0.000018 0.000010 -0.000021 10.592499 -0.524542 -2.232388 55.751549 -60.141127 34.054306 27.841749 -0.000073 -0.000105 226.945548 -73.599386 240.268460 28.328829 -0.000012 0.000026 0.000021 -0.000088 0.000001 2.465950 -1.576154 2.681865 -42.655788 143.596804 1.633746 3.217823 -1.871750 1.916382 161.226328 -28.528063 14.439534 2.656111 -1.528695 1.514480 147.560527 -24.160836 60.057990 2.020886 -1.154071 1.115146 -0.000001 0.000005 0.000008 9.109403 -0.517769 2.259768 115.847795 -16.444597 25.947359 3.700095 0.000220 -0.000432 117.729744 -16.177440 26.507073 2.850094 0.000251 0.000265 120.393245 -16.362645 28.178084 2.774881 -0.000029 -0.000023 -0.000001 0.000001 -0.000001 9.533462 0.000242 -0.000092 98.603951 -15.118830 17.532691 3.699996 -0.000014 -0.000238 -0.609700 -5.175539 -0.027649 2.950010 0.000064 0.000144 -63.977610 -2.158763 -1.349928 2.952867 -0.000049 0.000061 -0.000000 -0.000000 -0.000004 9.104595 -0.042810 -1.865219 99.523151 -13.652631 16.105907 3.149981 0.000006 0.000002 -16.220036 38.027201 5.621699 2.949994 0.000039 0.000188 -78.123116 23.752973 19.369701 2.644309 0.000014 0.000066 0.000003 0.000002 0.000003 8.077843 -0.486634 -3.806405 105.286102 -12.458694 17.010864 3.599840 0.000074 0.014534 47.980163 44.420815 -20.644711 2.100048 0.000052 0.007852 -86.958335 37.153296 34.810414 2.125510 -0.000016 0.007514 0.000004 -0.000000 0.000000 -8.207786 -6.751667 -1.599560 -0.077001 -0.000003 0.000080 -0.000002 -44.370110 0.345938 0.153719 -0.000000 -0.000000 0.000000 -44.423679 -3.043532 -0.076700 0.000000 -0.000002 -0.000006 -8.728667 10.710559 -0.000009 -0.000000 -0.000000 -0.000001 -0.000679 9.278123 0.000000 -0.000000 -0.000000 8.207792 -6.751710 -1.599556 -0.074518 -0.000003 0.000081 -0.000002 -44.370014 0.346960 0.148822 0.000002 0.000000 -0.000001 -44.423664 -3.044403 -0.074314 0.000000 -0.000002 -0.000004 -8.728671 10.710558 0.000007 -0.000000 -0.000000 0.000000 -0.000680 9.278137 -0.000000 0.000000 -0.000001 
0.000006 104.270477 1.554256 0.000010 0.000003 -0.000113 -0.000005 10.181587 0.131522 0.000001 -0.000003 0.000084 -0.000000 9.893967 -1.470711 0.000001 0.000000 -0.000000 -0.000000 9.220802 -1.370642 0.000000 -0.000000 -0.000000 0.000001 16.740433 -2.049030 0.000000 -0.000000 -0.000000 0.000000 9.617859 1.685014 0.000000 0.000000 0.000000 0.000002 22.037384 7.501101 0.000000 -0.000000 0.000000 -4.569968 11.014880 -2.160881 0.000008 0.000001 -0.000038 -10.592809 -0.524836 -2.231773 68.365201 58.940694 -41.992006 -27.841450 0.000005 0.000606 16.738634 109.277822 -23.424842 -28.328835 0.000007 0.000024 -0.000318 -0.000044 0.000006 -2.464480 -1.573660 2.682250 -57.547902 -178.851959 -44.262310 -3.215205 -1.872471 1.924584 142.432653 33.121831 44.201842 -2.654973 -1.527837 1.513034 153.119017 29.557493 -9.634024 -2.018826 -1.152001 1.108077 -0.000002 -0.000003 0.000002 -9.108390 -0.517580 2.260211 116.014479 17.316611 -27.473603 -3.700078 0.000275 0.001624 116.625016 14.851621 -23.805228 -2.850089 0.000344 -0.000129 119.806149 12.864070 -22.011663 -2.772179 -0.000016 -0.000031 -0.000000 0.000001 0.000000 -9.532578 0.000275 0.000311 108.078270 14.760020 -20.437649 -3.700052 0.000351 0.004012 103.623143 8.375538 -10.521111 -2.950058 0.000365 -0.001776 102.899771 10.003487 -12.526563 -2.946616 0.000001 -0.000172 -0.000000 0.000002 -0.000000 -9.103693 -0.042755 -1.864804 106.348470 15.936759 -21.118385 -3.379290 0.000340 -0.000786 102.206329 4.318310 -5.370992 -2.889737 0.000361 0.000665 104.491997 5.178639 -6.741741 -2.638805 -0.000002 0.000945 0.000000 -0.000000 0.000001 -8.076762 -0.486414 -3.805945 104.777875 20.142650 -25.766112 -3.600028 0.000291 -0.003443 107.514185 6.492011 -8.375812 -2.100020 0.000319 -0.005394 107.302907 5.960629 -7.793928 -2.115765 -0.000055 -0.003693 -0.000000 -0.000001 -0.000004 4.570446 11.014691 -2.160851 -0.000018 0.000010 -0.000021 10.592498 -0.524542 -2.232385 56.400386 -59.318041 33.958621 27.841753 -0.000080 -0.000112 225.445215 -72.119831 239.808679 28.328833 -0.000030 0.000021 0.000021 -0.000089 -0.000000 2.465921 -1.576138 2.681866 -48.005862 149.605772 11.377830 3.217767 -1.871744 1.916360 156.023118 -31.818242 -4.012708 2.656095 -1.528648 1.514459 146.312925 -25.483444 52.247211 2.020884 -1.154065 1.115143 0.000002 0.000005 0.000002 9.109400 -0.517771 2.259758 118.147151 -14.061440 23.243668 3.700073 0.000250 -0.000398 120.853203 -12.234026 21.419133 2.850063 0.000260 0.000268 122.419393 -11.698698 21.117845 2.774886 -0.000045 -0.000015 -0.000003 -0.000000 0.000000 9.533464 0.000260 -0.000109 100.810471 -13.274343 16.005597 3.700008 -0.000010 -0.000286 15.097993 -3.344545 0.442987 2.950009 0.000012 0.000116 -50.954864 2.924375 1.392427 2.952866 -0.000016 0.000051 0.000000 0.000000 -0.000000 9.104582 -0.042802 -1.865229 101.558192 -13.071742 15.983327 3.149961 0.000017 -0.000024 2.075367 34.499402 -0.644918 2.950003 0.000022 0.000150 -68.521182 28.691924 19.762515 2.644316 0.000041 0.000060 -0.000002 0.000001 0.000000 8.077843 -0.486630 -3.806420 105.670594 -11.159970 15.418431 3.599885 0.000047 0.014615 18.900044 43.746528 -7.759937 2.100026 0.000019 0.007842 -71.096867 33.721436 24.011470 2.125512 -0.000014 0.007518 -0.000002 -0.000002 0.000003 -8.207786 -6.751667 -1.599560 -0.077001 -0.000003 0.000080 -0.000002 -44.370110 0.345938 0.153719 -0.000000 -0.000000 0.000000 -44.423679 -3.043532 -0.076700 0.000000 -0.000002 -0.000006 -8.728667 10.710559 -0.000009 -0.000000 -0.000000 -0.000001 -0.000679 9.278123 0.000000 -0.000000 -0.000000 8.207792 -6.751710 -1.599556 -0.074518 -0.000003 0.000081 -0.000002 -44.370014 0.346960 0.148822 0.000002 0.000000 -0.000001 -44.423664 -3.044403 -0.074314 0.000000 -0.000002 -0.000004 -8.728671 10.710558 0.000007 -0.000000 -0.000000 0.000000 -0.000680 9.278137 -0.000000 0.000000 -0.000001 
